<svg width="33" height="32" viewBox="0 0 33 32" fill="none" xmlns="http://www.w3.org/2000/svg">
<path d="M30.3291 9.25995C30.1648 8.66799 29.843 8.12826 29.396 7.69479C28.9489 7.26131 28.3923 6.94929 27.7819 6.78995C25.5338 6.19995 16.5 6.19995 16.5 6.19995C16.5 6.19995 7.46626 6.19995 5.21814 6.78995C4.60768 6.94929 4.05108 7.26131 3.60406 7.69479C3.15704 8.12826 2.83527 8.66799 2.67095 9.25995C2.25118 11.4832 2.04747 13.7398 2.06251 16C2.04747 18.2601 2.25118 20.5167 2.67095 22.74C2.83527 23.3319 3.15704 23.8716 3.60406 24.3051C4.05108 24.7386 4.60768 25.0506 5.21814 25.2099C7.46626 25.7999 16.5 25.7999 16.5 25.7999C16.5 25.7999 25.5338 25.7999 27.7819 25.2099C28.3923 25.0506 28.9489 24.7386 29.396 24.3051C29.843 23.8716 30.1648 23.3319 30.3291 22.74C30.7488 20.5167 30.9526 18.2601 30.9375 16C30.9526 13.7398 30.7488 11.4832 30.3291 9.25995ZM13.6125 20.2V11.8L21.1097 16L13.6125 20.2Z" fill="#54B22C"/>
</svg>
