<svg width="33" height="32" viewBox="0 0 33 32" fill="none" xmlns="http://www.w3.org/2000/svg">
<path d="M23 3H11C9.14409 3.00199 7.36477 3.74012 6.05245 5.05245C4.74012 6.36477 4.00199 8.14409 4 10V22C4.00199 23.8559 4.74012 25.6352 6.05245 26.9476C7.36477 28.2599 9.14409 28.998 11 29H23C24.8559 28.998 26.6352 28.2599 27.9476 26.9476C29.2599 25.6352 29.998 23.8559 30 22V10C29.998 8.14409 29.2599 6.36477 27.9476 5.05245C26.6352 3.74012 24.8559 3.00199 23 3ZM17 22C15.8133 22 14.6533 21.6481 13.6666 20.9888C12.6799 20.3295 11.9108 19.3925 11.4567 18.2961C11.0026 17.1997 10.8838 15.9933 11.1153 14.8295C11.3468 13.6656 11.9182 12.5965 12.7574 11.7574C13.5965 10.9182 14.6656 10.3468 15.8295 10.1153C16.9933 9.88378 18.1997 10.0026 19.2961 10.4567C20.3925 10.9108 21.3295 11.6799 21.9888 12.6666C22.6481 13.6533 23 14.8133 23 16C22.9983 17.5908 22.3657 19.116 21.2408 20.2408C20.116 21.3657 18.5908 21.9983 17 22ZM24.5 10C24.2033 10 23.9133 9.91203 23.6666 9.7472C23.42 9.58238 23.2277 9.34811 23.1142 9.07403C23.0007 8.79994 22.9709 8.49834 23.0288 8.20736C23.0867 7.91639 23.2296 7.64912 23.4393 7.43934C23.6491 7.22956 23.9164 7.0867 24.2074 7.02882C24.4983 6.97094 24.7999 7.00065 25.074 7.11418C25.3481 7.22771 25.5824 7.41997 25.7472 7.66664C25.912 7.91332 26 8.20333 26 8.5C26 8.89782 25.842 9.27936 25.5607 9.56066C25.2794 9.84196 24.8978 10 24.5 10ZM21 16C21 16.7911 20.7654 17.5645 20.3259 18.2223C19.8864 18.8801 19.2616 19.3928 18.5307 19.6955C17.7998 19.9983 16.9956 20.0775 16.2196 19.9231C15.4437 19.7688 14.731 19.3878 14.1716 18.8284C13.6122 18.269 13.2312 17.5563 13.0769 16.7804C12.9225 16.0044 13.0017 15.2002 13.3045 14.4693C13.6072 13.7384 14.1199 13.1136 14.7777 12.6741C15.4355 12.2346 16.2089 12 17 12C18.0609 12 19.0783 12.4214 19.8284 13.1716C20.5786 13.9217 21 14.9391 21 16Z" fill="#54B22C"/>
</svg>
